<svg width="131" height="43" viewBox="0 0 131 43" fill="none" xmlns="http://www.w3.org/2000/svg">
<rect width="60" height="43" rx="20" fill="#5EB436"/>
<path d="M8.98 31.2751C7.412 31.2751 5.90933 31.0697 4.472 30.6591C3.03467 30.2297 1.87733 29.6791 1 29.0071L2.54 25.5911C3.38 26.1884 4.36933 26.6831 5.508 27.0751C6.66533 27.4484 7.832 27.6351 9.008 27.6351C9.904 27.6351 10.6227 27.5511 11.164 27.3831C11.724 27.1964 12.1347 26.9444 12.396 26.6271C12.6573 26.3097 12.788 25.9457 12.788 25.5351C12.788 25.0124 12.5827 24.6017 12.172 24.3031C11.7613 23.9857 11.22 23.7337 10.548 23.5471C9.876 23.3417 9.12933 23.1551 8.308 22.9871C7.50533 22.8004 6.69333 22.5764 5.872 22.3151C5.06933 22.0537 4.332 21.7177 3.66 21.3071C2.988 20.8964 2.43733 20.3551 2.008 19.6831C1.59733 19.0111 1.392 18.1524 1.392 17.1071C1.392 15.9871 1.69067 14.9697 2.288 14.0551C2.904 13.1217 3.81867 12.3844 5.032 11.8431C6.264 11.2831 7.804 11.0031 9.652 11.0031C10.884 11.0031 12.0973 11.1524 13.292 11.4511C14.4867 11.7311 15.5413 12.1604 16.456 12.7391L15.056 16.1831C14.1413 15.6604 13.2267 15.2777 12.312 15.0351C11.3973 14.7737 10.5013 14.6431 9.624 14.6431C8.74667 14.6431 8.028 14.7457 7.468 14.9511C6.908 15.1564 6.50667 15.4271 6.264 15.7631C6.02133 16.0804 5.9 16.4537 5.9 16.8831C5.9 17.3871 6.10533 17.7977 6.516 18.1151C6.92667 18.4137 7.468 18.6564 8.14 18.8431C8.812 19.0297 9.54933 19.2164 10.352 19.4031C11.1733 19.5897 11.9853 19.8044 12.788 20.0471C13.6093 20.2897 14.356 20.6164 15.028 21.0271C15.7 21.4377 16.2413 21.9791 16.652 22.6511C17.0813 23.3231 17.296 24.1724 17.296 25.1991C17.296 26.3004 16.988 27.3084 16.372 28.2231C15.756 29.1377 14.832 29.8751 13.6 30.4351C12.3867 30.9951 10.8467 31.2751 8.98 31.2751Z" fill="white"/>
<path d="M24.5675 19.2351H34.0035V22.7631H24.5675V19.2351ZM24.9035 27.2991H35.5715V30.9391H20.3955V11.3391H35.2075V14.9791H24.9035V27.2991Z" fill="white"/>
<path d="M36.6046 30.9391L45.3406 11.3391H49.8206L58.5846 30.9391H53.8246L46.6566 13.6351H48.4486L41.2526 30.9391H36.6046ZM40.9726 26.7391L42.1766 23.2951H52.2566L53.4886 26.7391H40.9726Z" fill="white"/>
<path d="M67.0581 31.2751C65.4901 31.2751 63.9875 31.0697 62.5501 30.6591C61.1128 30.2297 59.9555 29.6791 59.0781 29.0071L60.6181 25.5911C61.4581 26.1884 62.4475 26.6831 63.5861 27.0751C64.7435 27.4484 65.9101 27.6351 67.0861 27.6351C67.9821 27.6351 68.7008 27.5511 69.2421 27.3831C69.8021 27.1964 70.2128 26.9444 70.4741 26.6271C70.7355 26.3097 70.8661 25.9457 70.8661 25.5351C70.8661 25.0124 70.6608 24.6017 70.2501 24.3031C69.8395 23.9857 69.2981 23.7337 68.6261 23.5471C67.9541 23.3417 67.2075 23.1551 66.3861 22.9871C65.5835 22.8004 64.7715 22.5764 63.9501 22.3151C63.1475 22.0537 62.4101 21.7177 61.7381 21.3071C61.0661 20.8964 60.5155 20.3551 60.0861 19.6831C59.6755 19.0111 59.4701 18.1524 59.4701 17.1071C59.4701 15.9871 59.7688 14.9697 60.3661 14.0551C60.9821 13.1217 61.8968 12.3844 63.1101 11.8431C64.3421 11.2831 65.8821 11.0031 67.7301 11.0031C68.9621 11.0031 70.1755 11.1524 71.3701 11.4511C72.5648 11.7311 73.6195 12.1604 74.5341 12.7391L73.1341 16.1831C72.2195 15.6604 71.3048 15.2777 70.3901 15.0351C69.4755 14.7737 68.5795 14.6431 67.7021 14.6431C66.8248 14.6431 66.1061 14.7457 65.5461 14.9511C64.9861 15.1564 64.5848 15.4271 64.3421 15.7631C64.0995 16.0804 63.9781 16.4537 63.9781 16.8831C63.9781 17.3871 64.1835 17.7977 64.5941 18.1151C65.0048 18.4137 65.5461 18.6564 66.2181 18.8431C66.8901 19.0297 67.6275 19.2164 68.4301 19.4031C69.2515 19.5897 70.0635 19.8044 70.8661 20.0471C71.6875 20.2897 72.4341 20.6164 73.1061 21.0271C73.7781 21.4377 74.3195 21.9791 74.7301 22.6511C75.1595 23.3231 75.3741 24.1724 75.3741 25.1991C75.3741 26.3004 75.0661 27.3084 74.4501 28.2231C73.8341 29.1377 72.9101 29.8751 71.6781 30.4351C70.4648 30.9951 68.9248 31.2751 67.0581 31.2751Z" fill="white"/>
<path d="M87.9936 31.2751C86.4443 31.2751 85.0069 31.0231 83.6816 30.5191C82.3749 30.0151 81.2363 29.3057 80.2656 28.3911C79.3136 27.4764 78.5669 26.4031 78.0256 25.1711C77.5029 23.9391 77.2416 22.5951 77.2416 21.1391C77.2416 19.6831 77.5029 18.3391 78.0256 17.1071C78.5669 15.8751 79.3229 14.8017 80.2936 13.8871C81.2643 12.9724 82.4029 12.2631 83.7096 11.7591C85.0163 11.2551 86.4349 11.0031 87.9656 11.0031C99.6563 11.0031 100.428 10.9351 101.716 11.4391C103.023 11.9431 104.799 12.9724 105.751 13.8871C106.722 14.8017 107.478 15.8751 108.019 17.1071C108.56 18.3204 108.831 19.6644 108.831 21.1391C108.831 22.5951 108.56 23.9484 108.019 25.1991C107.478 26.4311 106.722 27.5044 105.751 28.4191C104.799 29.3151 103.67 30.4351 102.363 30.9391C101.075 31.4431 99.6657 31.2751 87.9936 31.2751ZM87.9656 27.4111C88.8429 27.4111 99.488 27.7097 100.216 27.4111C100.963 27.1124 101.915 26.2351 102.475 25.6751C103.035 25.1151 103.464 24.4524 103.763 23.6871C104.08 22.9217 104.239 22.0724 104.239 21.1391C104.239 20.2057 104.08 19.3564 103.763 18.5911C103.464 17.8257 103.035 17.1631 102.475 16.6031C101.934 16.0431 100.463 15.1657 99.716 14.8671C98.9693 14.5684 88.8429 14.8671 87.9656 14.8671C87.0883 14.8671 86.2763 15.0164 85.5296 15.3151C84.8016 15.6137 84.1576 16.0431 83.5976 16.6031C83.0376 17.1631 82.5989 17.8257 82.2816 18.5911C81.9829 19.3564 81.8336 20.2057 81.8336 21.1391C81.8336 22.0537 81.9829 22.9031 82.2816 23.6871C82.5989 24.4524 83.0283 25.1151 83.5696 25.6751C84.1296 26.2351 84.7829 26.6644 85.5296 26.9631C86.2763 27.2617 87.0883 27.4111 87.9656 27.4111Z" fill="white"/>
<path d="M112.24 30.9391V11.3391H115.992L127.556 25.4511H125.736V11.3391H130.216V30.9391H126.492L114.9 16.8271H116.72V30.9391H112.24Z" fill="white"/>
</svg>
